<svg xmlns="http://www.w3.org/2000/svg" viewBox="0 0 19.94 19"><defs><style>.cls-1{fill:none;stroke:#7f7f7f;stroke-width:2px}</style></defs><title>business</title><g id="图层_2" data-name="图层 2"><path class="cls-1" d="M3 13v5h14v-5M5.15 7h9.39M7.2 9.74a5.26 5.26 0 0 1-2.94 1.12A3 3 0 0 1 2.17 10a4.32 4.32 0 0 1-1-1.38A3 3 0 0 1 1.06 7a12 12 0 0 1 .39-1.18C1.79 5 2.6 3.29 3.2 2.13 3.68 1.2 4.27 1 4.67 1h10.66c.41 0 1 .2 1.42 1.15l.68 1.43c.5 1 1.07 2.23 1.34 2.88a2.49 2.49 0 0 1 .16.88 2.32 2.32 0 0 1-.2 1.07 5.18 5.18 0 0 1-1.34 1.8 2.6 2.6 0 0 1-1.66.6 5.14 5.14 0 0 1-3-1.26 4.55 4.55 0 0 1-1.1 1 2.88 2.88 0 0 1-1.51.44A5.27 5.27 0 0 1 7.2 9.74z" id="图层_5" data-name="图层 5"/></g></svg>