<svg xmlns="http://www.w3.org/2000/svg" viewBox="0 0 19.23 19.27"><defs><style>.cls-1{fill:none;stroke:#7f7f7f;stroke-width:2px}</style></defs><title>home</title><g id="图层_2" data-name="图层 2"><g id="图层_1-2" data-name="图层 1"><path class="cls-1" d="M.61 8.27l9-7 9 7"/><path class="cls-1" d="M2.61 7.27v10a1.08 1.08 0 0 0 0 .2 1 1 0 0 0 .06.19 1 1 0 0 0 .09.17 1 1 0 0 0 .14.17l.1.1.17.09.19.06h12.4l.19-.06.17-.09.15-.12a.94.94 0 0 0 .12-.15 1 1 0 0 0 .09-.17 1 1 0 0 0 .06-.19 1.09 1.09 0 0 0 0-.2v-10"/><path class="cls-1" d="M6.61 17.27v-4.61q0-.14.07-.29t.1-.28.22-.26l.15-.25.17-.23.19-.22.22-.19.23-.17.25-.15.27-.12.28-.1.24-.08h1.21l.29.07.28.1.27.12.25.15.23.17.22.19.19.22.17.23.15.25q.07.13.12.27t.1.28.07.29 0 .3v4.31"/></g></g></svg>