<svg xmlns="http://www.w3.org/2000/svg" viewBox="0 0 22 22"><defs><style>.cls-1{fill:none;stroke:#7f7f7f;stroke-width:2px}.cls-2{fill:#7f7f7f}</style></defs><title>industry</title><g id="图层_2" data-name="图层 2"><g id="图层_2-2" data-name="图层 2"><path class="cls-1" d="M11 19a8 8 0 1 0-8-8 8 8 0 0 0 8 8z"/><path class="cls-1" d="M11 14a3 3 0 1 0-3-3 3 3 0 0 0 3 3z"/><path class="cls-2" d="M12 1a1.09 1.09 0 0 0 0-.2 1 1 0 0 0-.06-.19 1 1 0 0 0-.09-.17.94.94 0 0 0-.12-.15l-.17-.13-.17-.09L11.2 0h-.4l-.19.06-.17.09-.15.12a.94.94 0 0 0-.12.15 1 1 0 0 0-.09.17A1 1 0 0 0 10 .8a1.09 1.09 0 0 0 0 .2v4a1.09 1.09 0 0 0 0 .2 1 1 0 0 0 .06.19 1 1 0 0 0 .09.17.94.94 0 0 0 .12.15l.15.12.17.09.21.08h.4l.19-.06.17-.09.15-.12a.94.94 0 0 0 .12-.15 1 1 0 0 0 .09-.17A1 1 0 0 0 12 5.2a1.09 1.09 0 0 0 0-.2zM6 11a1.09 1.09 0 0 1 0 .2 1 1 0 0 1-.06.19 1 1 0 0 1-.09.17 1 1 0 0 1-.12.15l-.15.12-.17.09-.21.08H.8l-.19-.06-.17-.09-.15-.12a1 1 0 0 1-.12-.15 1 1 0 0 1-.09-.17A1 1 0 0 1 0 11.2a1.1 1.1 0 0 1 0-.4 1 1 0 0 1 .06-.19 1 1 0 0 1 .09-.17 1 1 0 0 1 .12-.15l.15-.12.17-.09L.8 10h4.4l.19.06.17.09.15.12a1 1 0 0 1 .12.15 1 1 0 0 1 .09.17 1 1 0 0 1 .08.21 1.09 1.09 0 0 1 0 .2zm15 1h.2l.19-.06.17-.09.15-.12a.94.94 0 0 0 .12-.15 1 1 0 0 0 .09-.17 1 1 0 0 0 .08-.21 1.1 1.1 0 0 0 0-.4 1 1 0 0 0-.06-.19 1 1 0 0 0-.09-.17.94.94 0 0 0-.12-.15l-.15-.12-.17-.09-.21-.08h-4.4l-.19.06-.17.09-.15.12a.94.94 0 0 0-.12.15 1 1 0 0 0-.09.17 1 1 0 0 0-.06.19 1.1 1.1 0 0 0 0 .4 1 1 0 0 0 .06.19 1 1 0 0 0 .09.17.94.94 0 0 0 .12.15l.15.12.17.09.19.06h.2zm-9 5a1.09 1.09 0 0 0 0-.2 1 1 0 0 0-.06-.19 1 1 0 0 0-.09-.17.94.94 0 0 0-.12-.15l-.15-.12-.17-.09-.21-.08h-.4l-.19.06-.17.09-.15.12a.94.94 0 0 0-.12.15 1 1 0 0 0-.09.17 1 1 0 0 0-.06.19 1.09 1.09 0 0 0 0 .2v4a1.09 1.09 0 0 0 0 .2 1 1 0 0 0 .06.19 1 1 0 0 0 .09.17.94.94 0 0 0 .12.15l.15.12.17.09.19.06h.4l.19-.06.17-.09.15-.12a.94.94 0 0 0 .12-.15 1 1 0 0 0 .09-.17 1 1 0 0 0 .08-.17 1.09 1.09 0 0 0 0-.2z"/></g></g></svg>